<svg viewBox="492 394.8547 546 109.2906" width="5000" height="1000.8296703296702" xmlns="http://www.w3.org/2000/svg" xmlns:xlink="http://www.w3.org/1999/xlink" preserveAspectRatio="none"><defs></defs><style>.aD6z1nYkhcolor {fill:#F7F7F7;fill-opacity:1;}.aLgOaV3zRcolors-0 {fill:#FFCC57;fill-opacity:1;}.aLgOaV3zRcolors-1 {fill:#EF802F;fill-opacity:1;}.aLgOaV3zRcolors-2 {fill:#DB5192;fill-opacity:1;}.aLgOaV3zRcolors-3 {fill:#161616;fill-opacity:1;}.aLgOaV3zRcolors-4 {fill:#F7F7F7;fill-opacity:1;}.aLgOaV3zRcolors-5 {fill:#EDF577;fill-opacity:1;}.aLgOaV3zRcolors-6 {fill:#C4C4C4;fill-opacity:1;}.aLgOaV3zRcolors-7 {fill:#555555;fill-opacity:1;}.icon3-str {stroke:#DB5192;stroke-opacity:1;}</style><g opacity="1" transform="rotate(0 642 412.3802)">
<svg width="396" height="74.2395" x="642" y="412.3802" version="1.1" preserveAspectRatio="none" viewBox="2.24 -28.76 199.28 37.36">
  <g transform="matrix(1 0 0 1 0 0)" class="aD6z1nYkhcolor"><path id="id-D6z1nYkh13" d="M5.64-22.88Q2.24-22.88 2.24-25.80L2.24-25.80Q2.24-28.76 5.64-28.76L5.64-28.76Q9.04-28.76 9.04-25.80L9.04-25.80Q9.04-22.88 5.64-22.88L5.64-22.88ZM8.36-20L8.36 0L2.88 0L2.88-20L8.36-20Z M27.04-4.88L27.88-1.24Q26.92-0.48 25.46-0.04Q24 0.40 22.40 0.40L22.40 0.40Q15.72 0.40 15.72-5.64L15.72-5.64L15.72-15.92L12.08-15.92L12.08-20L15.72-20L15.72-24.60L21.20-26.12L21.20-20L27.68-20L27.68-15.92L21.20-15.92L21.20-6.52Q21.20-3.76 23.96-3.76L23.96-3.76Q25.72-3.76 27.04-4.88L27.04-4.88Z M36.28-27.28L35.16-16.64L31.40-16.64L31.40-27.28L36.28-27.28Z M48.68 0.40Q42 0.40 39.40-3.44L39.40-3.44L42.60-6.72Q43.40-5 44.90-4.30Q46.40-3.60 48.60-3.60L48.60-3.60Q50.36-3.60 51.32-4.08Q52.28-4.56 52.28-5.40L52.28-5.40Q52.28-6.08 51.38-6.56Q50.48-7.04 48.28-7.48L48.28-7.48Q43.68-8.40 41.82-9.90Q39.96-11.40 39.96-13.96L39.96-13.96Q39.96-15.64 41-17.12Q42.04-18.60 44.08-19.50Q46.12-20.40 48.96-20.40L48.96-20.40Q52.32-20.40 54.40-19.38Q56.48-18.36 57.88-16.16L57.88-16.16L54.48-13.28Q53.60-14.88 52.30-15.64Q51-16.40 49.04-16.40L49.04-16.40Q47.40-16.40 46.42-15.84Q45.44-15.28 45.44-14.48L45.44-14.48Q45.44-13.64 46.40-13.08Q47.36-12.52 49.80-12.04L49.80-12.04Q54.16-11.16 55.98-9.74Q57.80-8.32 57.80-5.80L57.80-5.80Q57.80-3 55.42-1.30Q53.04 0.40 48.68 0.40L48.68 0.40Z M77.16-28.76Q78.80-28.76 79.68-27.98Q80.56-27.20 80.56-25.80L80.56-25.80Q80.56-24.40 79.68-23.64Q78.80-22.88 77.16-22.88L77.16-22.88Q75.52-22.88 74.64-23.64Q73.76-24.40 73.76-25.80L73.76-25.80Q73.76-27.20 74.64-27.98Q75.52-28.76 77.16-28.76L77.16-28.76ZM79.88-20L79.88 1.48Q79.88 5.20 77.96 6.90Q76.04 8.60 72.76 8.60L72.76 8.60Q69.88 8.60 67.96 7.32L67.96 7.32L68.84 3.40Q69.92 4.36 71.64 4.36L71.64 4.36Q73 4.36 73.70 3.56Q74.40 2.76 74.40 0.96L74.40 0.96L74.40-20L79.88-20Z M99.16-20L104.64-20L104.64 0L99.76 0L99.56-3.44Q97.64 0.40 92.56 0.40L92.56 0.40Q89.32 0.40 87.42-1.34Q85.52-3.08 85.52-6.76L85.52-6.76L85.52-20L91.00-20L91.00-8.16Q91.00-5.84 91.88-4.88Q92.76-3.92 94.48-3.92L94.48-3.92Q96.56-3.92 97.86-5.26Q99.16-6.60 99.16-9.28L99.16-9.28L99.16-20Z M118.16 0.40Q111.48 0.40 108.88-3.44L108.88-3.44L112.08-6.72Q112.88-5 114.38-4.30Q115.88-3.60 118.08-3.60L118.08-3.60Q119.84-3.60 120.80-4.08Q121.76-4.56 121.76-5.40L121.76-5.40Q121.76-6.08 120.86-6.56Q119.96-7.04 117.76-7.48L117.76-7.48Q113.16-8.40 111.30-9.90Q109.44-11.40 109.44-13.96L109.44-13.96Q109.44-15.64 110.48-17.12Q111.52-18.60 113.56-19.50Q115.60-20.40 118.44-20.40L118.44-20.40Q121.80-20.40 123.88-19.38Q125.96-18.36 127.36-16.16L127.36-16.16L123.96-13.28Q123.08-14.88 121.78-15.64Q120.48-16.40 118.52-16.40L118.52-16.40Q116.88-16.40 115.90-15.84Q114.92-15.28 114.92-14.48L114.92-14.48Q114.92-13.64 115.88-13.08Q116.84-12.52 119.28-12.04L119.28-12.04Q123.64-11.16 125.46-9.74Q127.28-8.32 127.28-5.80L127.28-5.80Q127.28-3 124.90-1.30Q122.52 0.40 118.16 0.40L118.16 0.40Z M144.52-4.88L145.36-1.24Q144.40-0.48 142.94-0.04Q141.48 0.40 139.88 0.40L139.88 0.40Q133.20 0.40 133.20-5.64L133.20-5.64L133.20-15.92L129.56-15.92L129.56-20L133.20-20L133.20-24.60L138.68-26.12L138.68-20L145.16-20L145.16-15.92L138.68-15.92L138.68-6.52Q138.68-3.76 141.44-3.76L141.44-3.76Q143.20-3.76 144.52-4.88L144.52-4.88Z M166.44-28.76L166.44-6.36Q166.44-4.92 166.86-4.36Q167.28-3.80 168.40-3.80L168.40-3.80Q169.08-3.80 169.58-3.90Q170.08-4 170.76-4.24L170.76-4.24L170.28-0.44Q169.64-0.04 168.60 0.18Q167.56 0.40 166.56 0.40L166.56 0.40Q163.64 0.40 162.30-1.02Q160.96-2.44 160.96-5.56L160.96-5.56L160.96-28.76L166.44-28.76Z M176.56-22.88Q173.16-22.88 173.16-25.80L173.16-25.80Q173.16-28.76 176.56-28.76L176.56-28.76Q179.96-28.76 179.96-25.80L179.96-25.80Q179.96-22.88 176.56-22.88L176.56-22.88ZM179.28-20L179.28 0L173.80 0L173.80-20L179.28-20Z M183.96 0L183.96-3.52L192.80-13.76L195.08-16.04L191.76-15.96L184.04-15.96L184.04-20L201.16-20L201.16-16.48L192.32-6.28L190.04-3.96L193.72-4.04L201.52-4.04L201.52 0L183.96 0Z"/></g>
</svg>
</g><g opacity="1" transform="rotate(0 492 394.8547)">
<svg width="117.3999" height="109.2906" x="492" y="394.8547" version="1.1" preserveAspectRatio="none" viewBox="0.04900011420249939 0.8739995956420898 23.902000427246097 22.250999450683594">
  <g transform="matrix(1 0 0 1 0 0)" class="aLgOaV3zRcolors-0"><g><path d="M11.589,1.732c0-0.221-0.179-0.4-0.4-0.4H8.775c-0.221,0-0.4,0.18-0.4,0.4v3.185C8.19,4.984,8.004,5.06,7.817,5.144   L5.495,2.882c-0.155-0.152-0.403-0.152-0.559,0l-3.293,3.21C1.566,6.167,1.523,6.271,1.523,6.378c0,0.108,0.043,0.211,0.121,0.286   l2.312,2.252C3.872,9.092,3.796,9.269,3.729,9.445h-3.28c-0.221,0-0.4,0.18-0.4,0.4v4.539c0,0.221,0.179,0.4,0.4,0.4h3.28   c0.067,0.176,0.143,0.353,0.226,0.528l-2.312,2.253c-0.077,0.075-0.121,0.179-0.121,0.286s0.043,0.211,0.121,0.286l3.293,3.209   c0.155,0.152,0.403,0.152,0.559,0l2.321-2.261c0.186,0.083,0.372,0.159,0.558,0.228v3.184c0,0.221,0.179,0.4,0.4,0.4h2.414   c0.221,0,0.4-0.18,0.4-0.4s-0.179-0.4-0.4-0.4H9.175v-3.069c0-0.174-0.112-0.328-0.278-0.381c-0.327-0.104-0.658-0.239-0.983-0.399   C7.762,18.17,7.579,18.2,7.457,18.32l-2.241,2.183l-2.72-2.65l2.226-2.17c0.126-0.123,0.157-0.314,0.076-0.471   c-0.165-0.316-0.302-0.638-0.409-0.955c-0.055-0.162-0.207-0.272-0.379-0.272H0.848v-3.738H4.01c0.171,0,0.324-0.109,0.379-0.272   c0.107-0.316,0.245-0.638,0.409-0.956c0.081-0.156,0.05-0.347-0.076-0.47L2.496,6.378l2.72-2.651l2.241,2.184   C7.579,6.03,7.762,6.059,7.913,5.983c0.331-0.162,0.662-0.297,0.982-0.399c0.166-0.053,0.279-0.207,0.279-0.381v-3.07h2.014   C11.409,2.132,11.589,1.953,11.589,1.732z"></path><path d="M10.974,8.097c0.221,0,0.4-0.18,0.4-0.4s-0.179-0.4-0.4-0.4c-2.679,0-4.858,2.129-4.858,4.745s2.179,4.745,4.858,4.745   c0.221,0,0.4-0.18,0.4-0.4s-0.179-0.4-0.4-0.4c-2.238,0-4.059-1.77-4.059-3.944S8.737,8.097,10.974,8.097z"></path><path d="M23.951,12.07c0-0.94-0.478-1.77-1.203-2.262c0.157-0.375,0.264-0.77,0.264-1.181c0-1.253-0.755-2.329-1.832-2.809   c0.001-0.026,0.004-0.051,0.004-0.077c0-1.576-1.282-2.858-2.858-2.858c-0.327,0-0.644,0.076-0.949,0.184   c-0.257-1.25-1.365-2.193-2.69-2.193c-1.515,0-2.747,1.232-2.747,2.747v16.739c0,1.524,1.209,2.765,2.695,2.765   c0.867,0,1.653-0.424,2.154-1.112c0.026,0.01,0.049,0.025,0.078,0.029c0.164,0.027,0.332,0.041,0.503,0.041   c1.733,0,3.146-1.428,3.32-3.245c1.324-0.152,2.358-1.266,2.358-2.63c0-0.633-0.224-1.228-0.621-1.702   C23.326,14.06,23.951,13.14,23.951,12.07z M21.046,13.991c-0.226-0.024-0.416,0.141-0.437,0.36c-0.021,0.22,0.14,0.415,0.359,0.437   c0.083,0.008,0.167,0.012,0.253,0.012c0.115,0,0.224-0.02,0.335-0.034c0.438,0.355,0.691,0.878,0.691,1.443   c0,1.025-0.834,1.859-1.86,1.859c-0.566,0-1.094-0.253-1.449-0.694c-0.139-0.172-0.39-0.2-0.563-0.061   c-0.172,0.139-0.199,0.391-0.061,0.563c0.402,0.499,0.961,0.821,1.577,0.938c-0.157,1.388-1.222,2.47-2.523,2.47   c-0.05,0-0.099-0.009-0.148-0.012c0.1-0.292,0.16-0.596,0.16-0.91c0-1.524-1.208-2.765-2.694-2.765c-0.221,0-0.4,0.18-0.4,0.4   s0.179,0.4,0.4,0.4c1.044,0,1.895,0.881,1.895,1.964c0,0.212-0.04,0.416-0.103,0.613c-0.038,0.038-0.07,0.083-0.092,0.136   c-0.294,0.738-0.981,1.215-1.752,1.215c-1.045,0-1.895-0.881-1.895-1.964v-3.99c0.032-0.039,0.071-0.07,0.087-0.121   c0.234-0.74,0.92-1.299,1.745-1.425c0.219-0.033,0.369-0.237,0.335-0.456c-0.033-0.217-0.238-0.362-0.456-0.335   c-0.668,0.102-1.266,0.42-1.712,0.874V9.284c0.416,0.388,0.97,0.63,1.582,0.63c0.318,0,0.626-0.063,0.915-0.188   c0.203-0.087,0.297-0.321,0.21-0.524c-0.086-0.204-0.322-0.297-0.525-0.21c-0.188,0.08-0.391,0.121-0.6,0.121   c-0.843,0-1.53-0.686-1.53-1.529c0-0.069-0.022-0.13-0.052-0.187V3.622c0-1.073,0.874-1.946,1.947-1.946   c1.073,0,1.947,0.873,1.947,1.946s-0.874,1.946-1.947,1.946c-0.221,0-0.4,0.18-0.4,0.4s0.179,0.4,0.4,0.4   c1.416,0,2.572-1.082,2.718-2.46c0.284-0.144,0.601-0.225,0.922-0.225c1.085,0,1.966,0.845,2.044,1.91   c-0.143-0.02-0.285-0.044-0.434-0.044c-0.691,0-1.345,0.225-1.89,0.649c-0.174,0.136-0.206,0.387-0.07,0.562   c0.134,0.173,0.387,0.204,0.561,0.069c0.403-0.313,0.887-0.479,1.398-0.479c1.256,0,2.277,1.021,2.277,2.276   c0,0.295-0.075,0.579-0.184,0.848c-0.256-0.08-0.524-0.135-0.806-0.135c-0.082,0-0.163,0.004-0.243,0.011   c-0.22,0.019-0.384,0.212-0.365,0.433c0.018,0.22,0.212,0.379,0.432,0.364c1.096-0.098,2.104,0.799,2.105,1.922   C23.151,13.192,22.143,14.097,21.046,13.991z"></path><path d="M16.146,11.323c1.342,0,2.434-1.093,2.434-2.435c0-0.165-0.016-0.325-0.048-0.48c-0.044-0.217-0.253-0.359-0.472-0.313   c-0.216,0.044-0.356,0.255-0.313,0.471c0.021,0.104,0.032,0.212,0.032,0.322c0,0.901-0.733,1.634-1.634,1.634   c-0.221,0-0.4,0.18-0.4,0.4S15.925,11.323,16.146,11.323z"></path><path d="M16.146,12.921c-0.221,0-0.4,0.18-0.4,0.4s0.179,0.4,0.4,0.4c0.987,0,1.791,0.803,1.791,1.789c0,0.221,0.179,0.4,0.4,0.4   s0.4-0.18,0.4-0.4C18.736,14.083,17.574,12.921,16.146,12.921z"></path></g></g>
</svg>
</g></svg>